<svg xmlns="http://www.w3.org/2000/svg" viewBox="0 0 520 436" role="img" aria-label="schlagfertig‽">
  <rect width="520" height="436" fill="#000"/>
  <g fill="none" stroke="#7ad4c6" stroke-width="6.5" stroke-linecap="round">
    <path d="M78 200c10-98 102-172 182-172s172 74 182 172"/>
    <path d="M112 200c8-76 78-134 148-134s140 58 148 134"/>
    <path d="M146 200c8-54 54-96 114-96s106 42 114 96"/>
    <line x1="36" y1="208" x2="484" y2="208"/>
    <line x1="36" y1="294" x2="484" y2="294"/>
    <path d="M112 302c8 58 74 102 148 102s140-44 148-102"/>
    <path d="M146 302c8 40 52 72 114 72s106-32 114-72"/>
  </g>
  <defs>
    <path id="t" d="M98 198c12-90 96-156 162-156s150 66 162 156"/>
    <path id="b" d="M168 320c12 44 54 74 92 74s80-30 92-74"/>
  </defs>
  <text fill="#fff" font-family="Arial Black, Helvetica, sans-serif" font-size="21" letter-spacing="2.2">
    <textPath href="#t" startOffset="50%" text-anchor="middle">ZEIT FÜR GUTEN SOUND</textPath>
  </text>
  <g fill="#fff" stroke="#fff" stroke-linecap="round" stroke-linejoin="round" transform="translate(260 196)">
    <ellipse cx="0" cy="10" rx="48" ry="29" fill="#fff"/>
    <ellipse cx="0" cy="10" rx="39" ry="21" fill="#000" stroke="none"/>
    <rect x="-10" y="-40" width="24" height="20" rx="3" stroke="none"/>
    <rect x="-34" y="-30" width="18" height="16" rx="3" stroke="none"/>
    <rect x="16" y="-28" width="16" height="14" rx="3" stroke="none"/>
    <path d="M-62 8h14M48 8h14M-38 30l16-16M38 30L22 14" fill="none" stroke-width="4"/>
    <path d="M-8 -10L-68 -36" fill="none" stroke-width="4"/>
    <ellipse cx="-74" cy="-40" rx="23" ry="6" transform="rotate(-20 -74 -40)" stroke="none"/>
    <path d="M16 -8L80 -38" fill="none" stroke-width="4"/>
    <ellipse cx="90" cy="-44" rx="18" ry="5" transform="rotate(24 90 -44)" stroke="none"/>
  </g>
  <text x="260" y="264" text-anchor="middle" fill="#fff" font-family="Arial Black, Helvetica, sans-serif" font-size="40" letter-spacing="1.6">SCHLAGFERTIG?</text>
  <text fill="#fff" font-family="Georgia, Times New Roman, serif" font-size="20" font-style="italic">
    <textPath href="#b" startOffset="50%" text-anchor="middle">Thomas Schuster</textPath>
  </text>
</svg>
